<mxfile host="Electron" agent="Mozilla/5.0 (X11; Linux x86_64) AppleWebKit/537.36 (KHTML, like Gecko) draw.io/24.7.17 Chrome/128.0.6613.36 Electron/32.0.1 Safari/537.36" version="24.7.17">
  <diagram name="Page-1" id="AjDrFlyjp9OpT4FDus4n">
    <mxGraphModel dx="1154" dy="685" grid="1" gridSize="10" guides="1" tooltips="1" connect="1" arrows="1" fold="1" page="1" pageScale="1" pageWidth="850" pageHeight="1100" math="1" shadow="0">
      <root>
        <mxCell id="0" />
        <mxCell id="1" parent="0" />
        <mxCell id="1TVT91m1T4bher6ADKZ9-25" value="&lt;font color=&quot;#0000cc&quot; style=&quot;font-size: 16px;&quot;&gt;$$V_\text{o}$$&lt;/font&gt;" style="text;html=1;align=center;verticalAlign=middle;whiteSpace=wrap;rounded=0;container=0;" parent="1" vertex="1">
          <mxGeometry x="448" y="160.33" width="60" height="30" as="geometry" />
        </mxCell>
        <mxCell id="1TVT91m1T4bher6ADKZ9-1" value="" style="verticalLabelPosition=bottom;shadow=0;dashed=0;align=center;html=1;verticalAlign=top;shape=stencil(pVbRboMwDPyaPK4iSUvpY8e2131DStMRNSQopO329zMEtoZCREFCSD7D3WHHFoimVc5KjkjEqpJnFtE3RMiVGcEOEmACmdyBu8iFihXcIZ8lN8wKrZgEfF+UcMfuocoafeY3cbTt20Ll3AjrsreWMalD+o6iPYD1RdNMKwU+gLTyMnd54GZCWc+KUC+OGiyJgltuHN56/vainzZa4XjjEEQ+nlND5HWGXkLn6emLnaCGe2rztACG3kk85fNWMSb9kuIlqmSmarIbVqUpIGNHiqYHlp2/jL6o46DXktWn9yHRpQt95f+2Nr6lUBU6AinUHYGbhj+GdbB9wxS+h90kE5nUFQ80DPCHOjToSPFoetKGB6p6ElK69RBQfar0/pjhxYWbxhDysF3sYRqD7yHuFWJS/4MUMQ1vkWGSZHE/8HpxQ5LFDemZmNMR7O/kLZnhokeRhPfr0Lh2udGpa157GNsGdb8HDfAL);flipV=1;strokeWidth=2;container=0;" parent="1" vertex="1">
          <mxGeometry x="278" y="130.33" width="98" height="90" as="geometry" />
        </mxCell>
        <mxCell id="1TVT91m1T4bher6ADKZ9-2" value="" style="endArrow=none;html=1;rounded=0;strokeWidth=2;" parent="1" edge="1">
          <mxGeometry width="50" height="50" relative="1" as="geometry">
            <mxPoint x="218" y="220.33" as="sourcePoint" />
            <mxPoint x="218" y="130.33" as="targetPoint" />
          </mxGeometry>
        </mxCell>
        <mxCell id="1TVT91m1T4bher6ADKZ9-3" value="" style="endArrow=none;html=1;rounded=0;strokeWidth=2;" parent="1" edge="1">
          <mxGeometry width="50" height="50" relative="1" as="geometry">
            <mxPoint x="238" y="220.33" as="sourcePoint" />
            <mxPoint x="238" y="130.33" as="targetPoint" />
          </mxGeometry>
        </mxCell>
        <mxCell id="1TVT91m1T4bher6ADKZ9-4" value="" style="endArrow=none;html=1;rounded=0;strokeWidth=2;" parent="1" edge="1">
          <mxGeometry width="50" height="50" relative="1" as="geometry">
            <mxPoint x="218" y="130.33" as="sourcePoint" />
            <mxPoint x="238" y="130.33" as="targetPoint" />
          </mxGeometry>
        </mxCell>
        <mxCell id="1TVT91m1T4bher6ADKZ9-8" value="" style="endArrow=none;html=1;rounded=0;strokeWidth=2;" parent="1" edge="1">
          <mxGeometry width="50" height="50" relative="1" as="geometry">
            <mxPoint x="238" y="200.33" as="sourcePoint" />
            <mxPoint x="218" y="150.33" as="targetPoint" />
          </mxGeometry>
        </mxCell>
        <mxCell id="1TVT91m1T4bher6ADKZ9-9" value="" style="endArrow=none;html=1;rounded=0;strokeWidth=2;" parent="1" edge="1">
          <mxGeometry width="50" height="50" relative="1" as="geometry">
            <mxPoint x="218" y="200.33" as="sourcePoint" />
            <mxPoint x="238" y="150.33" as="targetPoint" />
          </mxGeometry>
        </mxCell>
        <mxCell id="1TVT91m1T4bher6ADKZ9-10" value="" style="endArrow=none;html=1;rounded=0;strokeWidth=2;" parent="1" edge="1">
          <mxGeometry width="50" height="50" relative="1" as="geometry">
            <mxPoint x="416" y="220" as="sourcePoint" />
            <mxPoint x="416" y="130" as="targetPoint" />
          </mxGeometry>
        </mxCell>
        <mxCell id="1TVT91m1T4bher6ADKZ9-11" value="" style="endArrow=none;html=1;rounded=0;strokeWidth=2;" parent="1" edge="1">
          <mxGeometry width="50" height="50" relative="1" as="geometry">
            <mxPoint x="436" y="220" as="sourcePoint" />
            <mxPoint x="436" y="130" as="targetPoint" />
          </mxGeometry>
        </mxCell>
        <mxCell id="1TVT91m1T4bher6ADKZ9-12" value="" style="endArrow=none;html=1;rounded=0;strokeWidth=2;" parent="1" edge="1">
          <mxGeometry width="50" height="50" relative="1" as="geometry">
            <mxPoint x="416" y="130" as="sourcePoint" />
            <mxPoint x="436" y="130" as="targetPoint" />
          </mxGeometry>
        </mxCell>
        <mxCell id="1TVT91m1T4bher6ADKZ9-13" value="" style="endArrow=none;html=1;rounded=0;strokeWidth=2;" parent="1" edge="1">
          <mxGeometry width="50" height="50" relative="1" as="geometry">
            <mxPoint x="416" y="220" as="sourcePoint" />
            <mxPoint x="436" y="220" as="targetPoint" />
          </mxGeometry>
        </mxCell>
        <mxCell id="1TVT91m1T4bher6ADKZ9-14" value="" style="endArrow=none;html=1;rounded=0;strokeWidth=2;" parent="1" edge="1">
          <mxGeometry width="50" height="50" relative="1" as="geometry">
            <mxPoint x="436" y="200" as="sourcePoint" />
            <mxPoint x="416" y="150" as="targetPoint" />
          </mxGeometry>
        </mxCell>
        <mxCell id="1TVT91m1T4bher6ADKZ9-15" value="" style="endArrow=none;html=1;rounded=0;strokeWidth=2;" parent="1" edge="1">
          <mxGeometry width="50" height="50" relative="1" as="geometry">
            <mxPoint x="416" y="200" as="sourcePoint" />
            <mxPoint x="436" y="150" as="targetPoint" />
          </mxGeometry>
        </mxCell>
        <mxCell id="1TVT91m1T4bher6ADKZ9-16" value="" style="endArrow=none;html=1;rounded=0;exitX=0.527;exitY=0.77;exitDx=0;exitDy=0;exitPerimeter=0;strokeWidth=2;endSize=6;" parent="1" edge="1">
          <mxGeometry width="50" height="50" relative="1" as="geometry">
            <mxPoint x="325.64599999999996" y="150.03" as="sourcePoint" />
            <mxPoint x="468" y="149.33" as="targetPoint" />
          </mxGeometry>
        </mxCell>
        <mxCell id="1TVT91m1T4bher6ADKZ9-17" value="" style="endArrow=none;html=1;rounded=0;exitX=0.527;exitY=0.77;exitDx=0;exitDy=0;exitPerimeter=0;strokeWidth=2;" parent="1" edge="1">
          <mxGeometry width="50" height="50" relative="1" as="geometry">
            <mxPoint x="326" y="200.33" as="sourcePoint" />
            <mxPoint x="468" y="199.33" as="targetPoint" />
          </mxGeometry>
        </mxCell>
        <mxCell id="1TVT91m1T4bher6ADKZ9-18" value="" style="endArrow=none;html=1;rounded=0;strokeWidth=2;" parent="1" edge="1">
          <mxGeometry width="50" height="50" relative="1" as="geometry">
            <mxPoint x="178" y="145.33" as="sourcePoint" />
            <mxPoint x="278" y="145.33" as="targetPoint" />
          </mxGeometry>
        </mxCell>
        <mxCell id="1TVT91m1T4bher6ADKZ9-20" value="" style="endArrow=none;html=1;rounded=0;strokeWidth=3;strokeColor=#FF0000;" parent="1" edge="1">
          <mxGeometry width="50" height="50" relative="1" as="geometry">
            <mxPoint x="296" y="165.33" as="sourcePoint" />
            <mxPoint x="326" y="165.33" as="targetPoint" />
          </mxGeometry>
        </mxCell>
        <mxCell id="1TVT91m1T4bher6ADKZ9-21" value="" style="endArrow=none;html=1;rounded=0;strokeWidth=3;strokeColor=#FF0000;" parent="1" edge="1">
          <mxGeometry width="50" height="50" relative="1" as="geometry">
            <mxPoint x="326" y="165.33" as="sourcePoint" />
            <mxPoint x="336" y="185.33" as="targetPoint" />
          </mxGeometry>
        </mxCell>
        <mxCell id="1TVT91m1T4bher6ADKZ9-22" value="&lt;font color=&quot;#0000cc&quot; style=&quot;font-size: 16px;&quot;&gt;$$V_\text{i}$$&lt;/font&gt;" style="text;html=1;align=center;verticalAlign=middle;whiteSpace=wrap;rounded=0;container=0;" parent="1" vertex="1">
          <mxGeometry x="148" y="160.33" width="60" height="30" as="geometry" />
        </mxCell>
        <mxCell id="1TVT91m1T4bher6ADKZ9-23" value="&lt;font color=&quot;#0000cc&quot; style=&quot;font-size: 16px;&quot;&gt;$$V_\text{i,ch}$$&lt;/font&gt;" style="text;html=1;align=center;verticalAlign=middle;whiteSpace=wrap;rounded=0;container=0;" parent="1" vertex="1">
          <mxGeometry x="228" y="160.33" width="60" height="30" as="geometry" />
        </mxCell>
        <mxCell id="1TVT91m1T4bher6ADKZ9-24" value="&lt;font color=&quot;#0000cc&quot; style=&quot;font-size: 16px;&quot;&gt;$$V_\text{o,ch}$$&lt;/font&gt;" style="text;html=1;align=center;verticalAlign=middle;whiteSpace=wrap;rounded=0;container=0;" parent="1" vertex="1">
          <mxGeometry x="366" y="160.33" width="60" height="30" as="geometry" />
        </mxCell>
        <mxCell id="1TVT91m1T4bher6ADKZ9-95" value="&lt;font color=&quot;#ff0000&quot; style=&quot;font-size: 18px;&quot;&gt;$$A$$&lt;/font&gt;" style="text;html=1;align=center;verticalAlign=middle;whiteSpace=wrap;rounded=0;container=0;" parent="1" vertex="1">
          <mxGeometry x="278" y="165.33" width="60" height="30" as="geometry" />
        </mxCell>
        <mxCell id="1TVT91m1T4bher6ADKZ9-5" value="" style="endArrow=none;html=1;rounded=0;strokeWidth=2;" parent="1" edge="1">
          <mxGeometry width="50" height="50" relative="1" as="geometry">
            <mxPoint x="218" y="220.33" as="sourcePoint" />
            <mxPoint x="238" y="220.33" as="targetPoint" />
          </mxGeometry>
        </mxCell>
        <mxCell id="1TVT91m1T4bher6ADKZ9-7" value="" style="endArrow=none;html=1;rounded=0;strokeWidth=2;" parent="1" edge="1">
          <mxGeometry width="50" height="50" relative="1" as="geometry">
            <mxPoint x="178" y="205.33" as="sourcePoint" />
            <mxPoint x="278" y="205.33" as="targetPoint" />
          </mxGeometry>
        </mxCell>
        <mxCell id="1TVT91m1T4bher6ADKZ9-58" value="" style="endArrow=blockThin;html=1;rounded=0;strokeWidth=2;endFill=1;" parent="1" edge="1">
          <mxGeometry width="50" height="50" relative="1" as="geometry">
            <mxPoint x="402" y="320" as="sourcePoint" />
            <mxPoint x="672" y="320" as="targetPoint" />
          </mxGeometry>
        </mxCell>
        <mxCell id="1TVT91m1T4bher6ADKZ9-62" value="" style="endArrow=none;html=1;rounded=0;strokeWidth=1;endFill=0;dashed=1;" parent="1" edge="1">
          <mxGeometry width="50" height="50" relative="1" as="geometry">
            <mxPoint x="522" y="320" as="sourcePoint" />
            <mxPoint x="522" y="250" as="targetPoint" />
          </mxGeometry>
        </mxCell>
        <mxCell id="1TVT91m1T4bher6ADKZ9-64" value="&lt;font style=&quot;font-size: 12px;&quot;&gt;$$0$$&lt;/font&gt;" style="text;html=1;align=center;verticalAlign=middle;whiteSpace=wrap;rounded=0;" parent="1" vertex="1">
          <mxGeometry x="492" y="320" width="60" height="30" as="geometry" />
        </mxCell>
        <mxCell id="1TVT91m1T4bher6ADKZ9-65" value="&lt;font color=&quot;#0000cc&quot; style=&quot;font-size: 16px;&quot;&gt;$$V_\text{o,ch}$$&lt;/font&gt;" style="text;html=1;align=center;verticalAlign=middle;whiteSpace=wrap;rounded=0;" parent="1" vertex="1">
          <mxGeometry x="362" y="240" width="60" height="30" as="geometry" />
        </mxCell>
        <mxCell id="1TVT91m1T4bher6ADKZ9-66" value="" style="endArrow=none;html=1;rounded=0;strokeWidth=3;fillColor=#d5e8d4;strokeColor=#82b366;dashed=1;" parent="1" edge="1">
          <mxGeometry width="50" height="50" relative="1" as="geometry">
            <mxPoint x="582" y="280" as="sourcePoint" />
            <mxPoint x="622" y="280" as="targetPoint" />
          </mxGeometry>
        </mxCell>
        <mxCell id="1TVT91m1T4bher6ADKZ9-67" value="" style="endArrow=none;html=1;rounded=0;strokeWidth=3;fillColor=#d5e8d4;strokeColor=#82b366;" parent="1" edge="1">
          <mxGeometry width="50" height="50" relative="1" as="geometry">
            <mxPoint x="582" y="280" as="sourcePoint" />
            <mxPoint x="582" y="320" as="targetPoint" />
          </mxGeometry>
        </mxCell>
        <mxCell id="1TVT91m1T4bher6ADKZ9-68" value="" style="endArrow=none;html=1;rounded=0;strokeWidth=3;fillColor=#d5e8d4;strokeColor=#82b366;dashed=1;" parent="1" edge="1">
          <mxGeometry width="50" height="50" relative="1" as="geometry">
            <mxPoint x="622" y="280" as="sourcePoint" />
            <mxPoint x="622" y="320" as="targetPoint" />
          </mxGeometry>
        </mxCell>
        <mxCell id="1TVT91m1T4bher6ADKZ9-69" value="" style="endArrow=none;html=1;rounded=0;strokeWidth=3;fillColor=#d5e8d4;strokeColor=#82b366;dashed=1;" parent="1" edge="1">
          <mxGeometry width="50" height="50" relative="1" as="geometry">
            <mxPoint x="422" y="280" as="sourcePoint" />
            <mxPoint x="462" y="280" as="targetPoint" />
          </mxGeometry>
        </mxCell>
        <mxCell id="1TVT91m1T4bher6ADKZ9-70" value="" style="endArrow=none;html=1;rounded=0;strokeWidth=3;fillColor=#d5e8d4;strokeColor=#82b366;dashed=1;" parent="1" edge="1">
          <mxGeometry width="50" height="50" relative="1" as="geometry">
            <mxPoint x="422" y="280" as="sourcePoint" />
            <mxPoint x="422" y="320" as="targetPoint" />
          </mxGeometry>
        </mxCell>
        <mxCell id="1TVT91m1T4bher6ADKZ9-71" value="" style="endArrow=none;html=1;rounded=0;strokeWidth=3;fillColor=#d5e8d4;strokeColor=#82b366;" parent="1" edge="1">
          <mxGeometry width="50" height="50" relative="1" as="geometry">
            <mxPoint x="462" y="280" as="sourcePoint" />
            <mxPoint x="462" y="320" as="targetPoint" />
          </mxGeometry>
        </mxCell>
        <mxCell id="1TVT91m1T4bher6ADKZ9-74" value="&lt;font style=&quot;font-size: 12px;&quot;&gt;$$f$$&lt;/font&gt;" style="text;html=1;align=center;verticalAlign=middle;whiteSpace=wrap;rounded=0;" parent="1" vertex="1">
          <mxGeometry x="632" y="320" width="60" height="30" as="geometry" />
        </mxCell>
        <mxCell id="1TVT91m1T4bher6ADKZ9-77" value="" style="group" parent="1" vertex="1" connectable="0">
          <mxGeometry x="522" y="270" width="110" height="50" as="geometry" />
        </mxCell>
        <mxCell id="1TVT91m1T4bher6ADKZ9-72" value="" style="endArrow=none;html=1;rounded=0;strokeColor=#FF0000;strokeWidth=2;" parent="1TVT91m1T4bher6ADKZ9-77" edge="1">
          <mxGeometry width="50" height="50" relative="1" as="geometry">
            <mxPoint as="sourcePoint" />
            <mxPoint x="30" as="targetPoint" />
          </mxGeometry>
        </mxCell>
        <mxCell id="1TVT91m1T4bher6ADKZ9-73" value="" style="endArrow=none;html=1;rounded=0;entryX=0.5;entryY=0;entryDx=0;entryDy=0;strokeColor=#FF0000;strokeWidth=2;" parent="1TVT91m1T4bher6ADKZ9-77" edge="1">
          <mxGeometry width="50" height="50" relative="1" as="geometry">
            <mxPoint x="30" as="sourcePoint" />
            <mxPoint x="110" y="50" as="targetPoint" />
          </mxGeometry>
        </mxCell>
        <mxCell id="1TVT91m1T4bher6ADKZ9-78" value="" style="group;flipH=1;" parent="1" vertex="1" connectable="0">
          <mxGeometry x="412" y="270" width="110" height="50" as="geometry" />
        </mxCell>
        <mxCell id="1TVT91m1T4bher6ADKZ9-79" value="" style="endArrow=none;html=1;rounded=0;strokeColor=#FF0000;strokeWidth=2;" parent="1TVT91m1T4bher6ADKZ9-78" edge="1">
          <mxGeometry width="50" height="50" relative="1" as="geometry">
            <mxPoint x="110" as="sourcePoint" />
            <mxPoint x="80" as="targetPoint" />
          </mxGeometry>
        </mxCell>
        <mxCell id="1TVT91m1T4bher6ADKZ9-80" value="" style="endArrow=none;html=1;rounded=0;entryX=0.5;entryY=0;entryDx=0;entryDy=0;strokeColor=#FF0000;strokeWidth=2;" parent="1TVT91m1T4bher6ADKZ9-78" edge="1">
          <mxGeometry width="50" height="50" relative="1" as="geometry">
            <mxPoint x="80" as="sourcePoint" />
            <mxPoint y="50" as="targetPoint" />
          </mxGeometry>
        </mxCell>
        <mxCell id="1TVT91m1T4bher6ADKZ9-81" value="" style="endArrow=blockThin;html=1;rounded=0;strokeWidth=2;endFill=1;" parent="1" edge="1">
          <mxGeometry width="50" height="50" relative="1" as="geometry">
            <mxPoint x="402" y="440" as="sourcePoint" />
            <mxPoint x="672" y="440" as="targetPoint" />
          </mxGeometry>
        </mxCell>
        <mxCell id="1TVT91m1T4bher6ADKZ9-83" value="" style="endArrow=none;html=1;rounded=0;strokeWidth=3;fillColor=#d5e8d4;strokeColor=#A680B8;exitX=0.84;exitY=0.981;exitDx=0;exitDy=0;exitPerimeter=0;" parent="1" edge="1">
          <mxGeometry width="50" height="50" relative="1" as="geometry">
            <mxPoint x="502.4" y="379.42999999999995" as="sourcePoint" />
            <mxPoint x="502" y="440" as="targetPoint" />
          </mxGeometry>
        </mxCell>
        <mxCell id="1TVT91m1T4bher6ADKZ9-84" value="" style="endArrow=none;html=1;rounded=0;strokeWidth=3;fillColor=#d5e8d4;strokeColor=#A680B8;" parent="1" edge="1">
          <mxGeometry width="50" height="50" relative="1" as="geometry">
            <mxPoint x="542" y="380" as="sourcePoint" />
            <mxPoint x="542" y="440" as="targetPoint" />
          </mxGeometry>
        </mxCell>
        <mxCell id="1TVT91m1T4bher6ADKZ9-85" value="&lt;font color=&quot;#0000cc&quot; style=&quot;font-size: 16px;&quot;&gt;$$V_\text{o}$$&lt;/font&gt;" style="text;html=1;align=center;verticalAlign=middle;whiteSpace=wrap;rounded=0;" parent="1" vertex="1">
          <mxGeometry x="362" y="390" width="60" height="30" as="geometry" />
        </mxCell>
        <mxCell id="1TVT91m1T4bher6ADKZ9-86" value="" style="endArrow=none;html=1;rounded=0;strokeWidth=3;fillColor=#d5e8d4;strokeColor=#A680B8;" parent="1" edge="1">
          <mxGeometry width="50" height="50" relative="1" as="geometry">
            <mxPoint x="502" y="380" as="sourcePoint" />
            <mxPoint x="542" y="380" as="targetPoint" />
          </mxGeometry>
        </mxCell>
        <mxCell id="1TVT91m1T4bher6ADKZ9-87" value="&lt;font style=&quot;font-size: 12px;&quot;&gt;$$f$$&lt;/font&gt;" style="text;html=1;align=center;verticalAlign=middle;whiteSpace=wrap;rounded=0;" parent="1" vertex="1">
          <mxGeometry x="632" y="440" width="60" height="30" as="geometry" />
        </mxCell>
        <mxCell id="1TVT91m1T4bher6ADKZ9-90" value="&lt;font color=&quot;#ff0000&quot; style=&quot;font-size: 16px;&quot;&gt;$$A$$&lt;/font&gt;" style="text;html=1;align=center;verticalAlign=middle;whiteSpace=wrap;rounded=0;" parent="1" vertex="1">
          <mxGeometry x="452" y="240" width="60" height="30" as="geometry" />
        </mxCell>
        <mxCell id="1TVT91m1T4bher6ADKZ9-92" value="&lt;font color=&quot;#b5739d&quot; style=&quot;font-size: 16px;&quot;&gt;$$\hat{A} \lt A$$&lt;/font&gt;" style="text;html=1;align=center;verticalAlign=middle;whiteSpace=wrap;rounded=0;" parent="1" vertex="1">
          <mxGeometry x="552" y="360" width="60" height="30" as="geometry" />
        </mxCell>
        <mxCell id="1TVT91m1T4bher6ADKZ9-103" value="" style="endArrow=none;html=1;rounded=0;strokeWidth=1;endFill=0;dashed=1;" parent="1" edge="1">
          <mxGeometry width="50" height="50" relative="1" as="geometry">
            <mxPoint x="522" y="440" as="sourcePoint" />
            <mxPoint x="522" y="370" as="targetPoint" />
          </mxGeometry>
        </mxCell>
        <mxCell id="1TVT91m1T4bher6ADKZ9-104" value="&lt;font style=&quot;font-size: 12px;&quot;&gt;$$0$$&lt;/font&gt;" style="text;html=1;align=center;verticalAlign=middle;whiteSpace=wrap;rounded=0;" parent="1" vertex="1">
          <mxGeometry x="492" y="440" width="60" height="30" as="geometry" />
        </mxCell>
        <mxCell id="1TVT91m1T4bher6ADKZ9-26" value="" style="endArrow=blockThin;html=1;rounded=0;strokeWidth=2;endFill=1;" parent="1" edge="1">
          <mxGeometry width="50" height="50" relative="1" as="geometry">
            <mxPoint x="68" y="320" as="sourcePoint" />
            <mxPoint x="338" y="320" as="targetPoint" />
          </mxGeometry>
        </mxCell>
        <mxCell id="1TVT91m1T4bher6ADKZ9-27" value="" style="endArrow=none;html=1;rounded=0;strokeWidth=3;fillColor=#d5e8d4;strokeColor=#82b366;" parent="1" edge="1">
          <mxGeometry width="50" height="50" relative="1" as="geometry">
            <mxPoint x="168" y="280" as="sourcePoint" />
            <mxPoint x="208" y="280" as="targetPoint" />
          </mxGeometry>
        </mxCell>
        <mxCell id="1TVT91m1T4bher6ADKZ9-28" value="" style="endArrow=none;html=1;rounded=0;strokeWidth=3;fillColor=#d5e8d4;strokeColor=#82b366;" parent="1" edge="1">
          <mxGeometry width="50" height="50" relative="1" as="geometry">
            <mxPoint x="168" y="280" as="sourcePoint" />
            <mxPoint x="168" y="320" as="targetPoint" />
          </mxGeometry>
        </mxCell>
        <mxCell id="1TVT91m1T4bher6ADKZ9-29" value="" style="endArrow=none;html=1;rounded=0;strokeWidth=3;fillColor=#d5e8d4;strokeColor=#82b366;" parent="1" edge="1">
          <mxGeometry width="50" height="50" relative="1" as="geometry">
            <mxPoint x="208" y="280" as="sourcePoint" />
            <mxPoint x="208" y="320" as="targetPoint" />
          </mxGeometry>
        </mxCell>
        <mxCell id="1TVT91m1T4bher6ADKZ9-31" value="" style="endArrow=none;html=1;rounded=0;strokeWidth=1;endFill=0;dashed=1;" parent="1" edge="1">
          <mxGeometry width="50" height="50" relative="1" as="geometry">
            <mxPoint x="188" y="320" as="sourcePoint" />
            <mxPoint x="188" y="250" as="targetPoint" />
          </mxGeometry>
        </mxCell>
        <mxCell id="1TVT91m1T4bher6ADKZ9-32" value="&lt;font color=&quot;#0000cc&quot; style=&quot;font-size: 16px;&quot;&gt;$$V_\text{i}$$&lt;/font&gt;" style="text;html=1;align=center;verticalAlign=middle;whiteSpace=wrap;rounded=0;container=0;" parent="1" vertex="1">
          <mxGeometry x="47" y="254" width="60" height="30" as="geometry" />
        </mxCell>
        <mxCell id="1TVT91m1T4bher6ADKZ9-33" value="&lt;font style=&quot;font-size: 12px;&quot;&gt;$$f$$&lt;/font&gt;" style="text;html=1;align=center;verticalAlign=middle;whiteSpace=wrap;rounded=0;container=0;" parent="1" vertex="1">
          <mxGeometry x="298" y="320" width="60" height="30" as="geometry" />
        </mxCell>
        <mxCell id="1TVT91m1T4bher6ADKZ9-34" value="&lt;font style=&quot;font-size: 12px;&quot;&gt;$$0$$&lt;/font&gt;" style="text;html=1;align=center;verticalAlign=middle;whiteSpace=wrap;rounded=0;container=0;" parent="1" vertex="1">
          <mxGeometry x="158" y="320" width="60" height="30" as="geometry" />
        </mxCell>
        <mxCell id="1TVT91m1T4bher6ADKZ9-43" value="" style="endArrow=blockThin;html=1;rounded=0;strokeWidth=2;endFill=1;" parent="1" edge="1">
          <mxGeometry width="50" height="50" relative="1" as="geometry">
            <mxPoint x="68" y="440" as="sourcePoint" />
            <mxPoint x="338" y="440" as="targetPoint" />
          </mxGeometry>
        </mxCell>
        <mxCell id="1TVT91m1T4bher6ADKZ9-47" value="" style="endArrow=none;html=1;rounded=0;strokeWidth=1;endFill=0;dashed=1;" parent="1" edge="1">
          <mxGeometry width="50" height="50" relative="1" as="geometry">
            <mxPoint x="188" y="440" as="sourcePoint" />
            <mxPoint x="188" y="370" as="targetPoint" />
          </mxGeometry>
        </mxCell>
        <mxCell id="1TVT91m1T4bher6ADKZ9-49" value="&lt;font style=&quot;font-size: 12px;&quot;&gt;$$f$$&lt;/font&gt;" style="text;html=1;align=center;verticalAlign=middle;whiteSpace=wrap;rounded=0;container=0;" parent="1" vertex="1">
          <mxGeometry x="298" y="440" width="60" height="30" as="geometry" />
        </mxCell>
        <mxCell id="1TVT91m1T4bher6ADKZ9-50" value="&lt;font style=&quot;font-size: 12px;&quot;&gt;$$0$$&lt;/font&gt;" style="text;html=1;align=center;verticalAlign=middle;whiteSpace=wrap;rounded=0;container=0;" parent="1" vertex="1">
          <mxGeometry x="158" y="440" width="60" height="30" as="geometry" />
        </mxCell>
        <mxCell id="1TVT91m1T4bher6ADKZ9-51" value="&lt;font color=&quot;#0000cc&quot; style=&quot;font-size: 16px;&quot;&gt;$$V_\text{i,ch}$$&lt;/font&gt;" style="text;html=1;align=center;verticalAlign=middle;whiteSpace=wrap;rounded=0;container=0;" parent="1" vertex="1">
          <mxGeometry x="52" y="353" width="60" height="30" as="geometry" />
        </mxCell>
        <mxCell id="1TVT91m1T4bher6ADKZ9-52" value="" style="endArrow=none;html=1;rounded=0;strokeWidth=3;fillColor=#d5e8d4;strokeColor=#82b366;" parent="1" edge="1">
          <mxGeometry width="50" height="50" relative="1" as="geometry">
            <mxPoint x="248" y="401" as="sourcePoint" />
            <mxPoint x="288" y="401" as="targetPoint" />
          </mxGeometry>
        </mxCell>
        <mxCell id="1TVT91m1T4bher6ADKZ9-53" value="" style="endArrow=none;html=1;rounded=0;strokeWidth=3;fillColor=#d5e8d4;strokeColor=#82b366;" parent="1" edge="1">
          <mxGeometry width="50" height="50" relative="1" as="geometry">
            <mxPoint x="248" y="400" as="sourcePoint" />
            <mxPoint x="248" y="440" as="targetPoint" />
          </mxGeometry>
        </mxCell>
        <mxCell id="1TVT91m1T4bher6ADKZ9-54" value="" style="endArrow=none;html=1;rounded=0;strokeWidth=3;fillColor=#d5e8d4;strokeColor=#82b366;" parent="1" edge="1">
          <mxGeometry width="50" height="50" relative="1" as="geometry">
            <mxPoint x="288" y="400" as="sourcePoint" />
            <mxPoint x="288" y="440" as="targetPoint" />
          </mxGeometry>
        </mxCell>
        <mxCell id="1TVT91m1T4bher6ADKZ9-55" value="" style="endArrow=none;html=1;rounded=0;strokeWidth=3;fillColor=#d5e8d4;strokeColor=#82b366;" parent="1" edge="1">
          <mxGeometry width="50" height="50" relative="1" as="geometry">
            <mxPoint x="88" y="401" as="sourcePoint" />
            <mxPoint x="128" y="401" as="targetPoint" />
          </mxGeometry>
        </mxCell>
        <mxCell id="1TVT91m1T4bher6ADKZ9-56" value="" style="endArrow=none;html=1;rounded=0;strokeWidth=3;fillColor=#d5e8d4;strokeColor=#82b366;" parent="1" edge="1">
          <mxGeometry width="50" height="50" relative="1" as="geometry">
            <mxPoint x="88" y="400" as="sourcePoint" />
            <mxPoint x="88" y="440" as="targetPoint" />
          </mxGeometry>
        </mxCell>
        <mxCell id="1TVT91m1T4bher6ADKZ9-57" value="" style="endArrow=none;html=1;rounded=0;strokeWidth=3;fillColor=#d5e8d4;strokeColor=#82b366;" parent="1" edge="1">
          <mxGeometry width="50" height="50" relative="1" as="geometry">
            <mxPoint x="128" y="400" as="sourcePoint" />
            <mxPoint x="128" y="440" as="targetPoint" />
          </mxGeometry>
        </mxCell>
        <mxCell id="1TVT91m1T4bher6ADKZ9-89" value="&lt;font color=&quot;#009900&quot; style=&quot;font-size: 16px;&quot;&gt;$$1$$&lt;/font&gt;" style="text;html=1;align=center;verticalAlign=middle;whiteSpace=wrap;rounded=0;container=0;" parent="1" vertex="1">
          <mxGeometry x="118" y="260" width="60" height="30" as="geometry" />
        </mxCell>
        <mxCell id="1TVT91m1T4bher6ADKZ9-106" value="&lt;font style=&quot;font-size: 12px;&quot;&gt;$$-f_{ch}$$&lt;/font&gt;" style="text;html=1;align=center;verticalAlign=middle;whiteSpace=wrap;rounded=0;container=0;" parent="1" vertex="1">
          <mxGeometry x="74" y="438" width="60" height="30" as="geometry" />
        </mxCell>
        <mxCell id="1TVT91m1T4bher6ADKZ9-107" value="" style="endArrow=none;html=1;rounded=0;strokeWidth=1;endFill=0;dashed=1;" parent="1" edge="1">
          <mxGeometry width="50" height="50" relative="1" as="geometry">
            <mxPoint x="442.08" y="320" as="sourcePoint" />
            <mxPoint x="442.08" y="250" as="targetPoint" />
          </mxGeometry>
        </mxCell>
        <mxCell id="1TVT91m1T4bher6ADKZ9-108" value="&lt;font style=&quot;font-size: 12px;&quot;&gt;$$f_{ch}$$&lt;/font&gt;" style="text;html=1;align=center;verticalAlign=middle;whiteSpace=wrap;rounded=0;container=0;" parent="1" vertex="1">
          <mxGeometry x="240" y="438" width="60" height="30" as="geometry" />
        </mxCell>
        <mxCell id="1TVT91m1T4bher6ADKZ9-109" value="" style="endArrow=none;html=1;rounded=0;strokeWidth=1;endFill=0;dashed=1;" parent="1" edge="1">
          <mxGeometry width="50" height="50" relative="1" as="geometry">
            <mxPoint x="603.0799999999999" y="320" as="sourcePoint" />
            <mxPoint x="603.0799999999999" y="250" as="targetPoint" />
          </mxGeometry>
        </mxCell>
        <mxCell id="1TVT91m1T4bher6ADKZ9-111" value="&lt;font style=&quot;font-size: 12px;&quot;&gt;$$-f_{ch}$$&lt;/font&gt;" style="text;html=1;align=center;verticalAlign=middle;whiteSpace=wrap;rounded=0;container=0;" parent="1" vertex="1">
          <mxGeometry x="406" y="316" width="60" height="30" as="geometry" />
        </mxCell>
        <mxCell id="1TVT91m1T4bher6ADKZ9-112" value="&lt;font style=&quot;font-size: 12px;&quot;&gt;$$f_{ch}$$&lt;/font&gt;" style="text;html=1;align=center;verticalAlign=middle;whiteSpace=wrap;rounded=0;container=0;" parent="1" vertex="1">
          <mxGeometry x="575" y="316" width="60" height="30" as="geometry" />
        </mxCell>
        <mxCell id="1TVT91m1T4bher6ADKZ9-113" value="" style="endArrow=none;html=1;rounded=0;strokeWidth=1;endFill=0;dashed=1;" parent="1" edge="1">
          <mxGeometry width="50" height="50" relative="1" as="geometry">
            <mxPoint x="107.07999999999998" y="440" as="sourcePoint" />
            <mxPoint x="107.07999999999998" y="370" as="targetPoint" />
          </mxGeometry>
        </mxCell>
        <mxCell id="1TVT91m1T4bher6ADKZ9-114" value="" style="endArrow=none;html=1;rounded=0;strokeWidth=1;endFill=0;dashed=1;" parent="1" edge="1">
          <mxGeometry width="50" height="50" relative="1" as="geometry">
            <mxPoint x="268.0799999999999" y="440" as="sourcePoint" />
            <mxPoint x="268.0799999999999" y="370" as="targetPoint" />
          </mxGeometry>
        </mxCell>
        <mxCell id="Rayb-A_KkTDb1NXdE2EJ-2" value="" style="endArrow=none;html=1;rounded=0;endFill=0;startArrow=blockThin;startFill=1;strokeColor=#666666;" parent="1" edge="1">
          <mxGeometry width="50" height="50" relative="1" as="geometry">
            <mxPoint x="125" y="385" as="sourcePoint" />
            <mxPoint x="168" y="335" as="targetPoint" />
          </mxGeometry>
        </mxCell>
        <mxCell id="Rayb-A_KkTDb1NXdE2EJ-3" value="" style="endArrow=none;html=1;rounded=0;endFill=0;startArrow=blockThin;startFill=1;strokeColor=#666666;" parent="1" edge="1">
          <mxGeometry width="50" height="50" relative="1" as="geometry">
            <mxPoint x="251" y="385" as="sourcePoint" />
            <mxPoint x="208" y="335" as="targetPoint" />
          </mxGeometry>
        </mxCell>
        <mxCell id="Rayb-A_KkTDb1NXdE2EJ-4" value="" style="endArrow=none;html=1;rounded=0;endFill=0;startArrow=blockThin;startFill=1;strokeColor=#666666;" parent="1" edge="1">
          <mxGeometry width="50" height="50" relative="1" as="geometry">
            <mxPoint x="499.5" y="374" as="sourcePoint" />
            <mxPoint x="456.5" y="324" as="targetPoint" />
          </mxGeometry>
        </mxCell>
        <mxCell id="Rayb-A_KkTDb1NXdE2EJ-5" value="" style="endArrow=none;html=1;rounded=0;endFill=0;startArrow=blockThin;startFill=1;strokeColor=#666666;" parent="1" edge="1">
          <mxGeometry width="50" height="50" relative="1" as="geometry">
            <mxPoint x="543" y="375" as="sourcePoint" />
            <mxPoint x="586" y="325" as="targetPoint" />
          </mxGeometry>
        </mxCell>
        <mxCell id="7sapl8jYc7BjnxslYowp-1" value="&lt;i&gt;&lt;font color=&quot;#ff00ff&quot;&gt;&lt;b&gt;modulate&lt;/b&gt;&lt;/font&gt;&lt;/i&gt;" style="text;html=1;align=center;verticalAlign=middle;whiteSpace=wrap;rounded=0;" parent="1" vertex="1">
          <mxGeometry x="88" y="340" width="60" height="30" as="geometry" />
        </mxCell>
        <mxCell id="7sapl8jYc7BjnxslYowp-2" value="&lt;i&gt;&lt;font color=&quot;#ff00ff&quot;&gt;&lt;b&gt;demodulate&lt;/b&gt;&lt;/font&gt;&lt;/i&gt;" style="text;html=1;align=center;verticalAlign=middle;whiteSpace=wrap;rounded=0;" parent="1" vertex="1">
          <mxGeometry x="412" y="340" width="60" height="30" as="geometry" />
        </mxCell>
        <mxCell id="I3lel7o0mYPPGCDs0vqZ-1" value="&lt;b&gt;&lt;font style=&quot;font-size: 20px;&quot;&gt;...&lt;/font&gt;&lt;/b&gt;" style="text;html=1;align=center;verticalAlign=middle;whiteSpace=wrap;rounded=0;" vertex="1" parent="1">
          <mxGeometry x="28" y="398" width="60" height="30" as="geometry" />
        </mxCell>
        <mxCell id="I3lel7o0mYPPGCDs0vqZ-2" value="&lt;b&gt;&lt;font style=&quot;font-size: 20px;&quot;&gt;...&lt;/font&gt;&lt;/b&gt;" style="text;html=1;align=center;verticalAlign=middle;whiteSpace=wrap;rounded=0;" vertex="1" parent="1">
          <mxGeometry x="288" y="398" width="60" height="30" as="geometry" />
        </mxCell>
        <mxCell id="I3lel7o0mYPPGCDs0vqZ-3" value="&lt;b&gt;&lt;font style=&quot;font-size: 20px;&quot;&gt;...&lt;/font&gt;&lt;/b&gt;" style="text;html=1;align=center;verticalAlign=middle;whiteSpace=wrap;rounded=0;" vertex="1" parent="1">
          <mxGeometry x="362" y="280" width="60" height="30" as="geometry" />
        </mxCell>
        <mxCell id="I3lel7o0mYPPGCDs0vqZ-4" value="&lt;b&gt;&lt;font style=&quot;font-size: 20px;&quot;&gt;...&lt;/font&gt;&lt;/b&gt;" style="text;html=1;align=center;verticalAlign=middle;whiteSpace=wrap;rounded=0;" vertex="1" parent="1">
          <mxGeometry x="622" y="280" width="60" height="30" as="geometry" />
        </mxCell>
      </root>
    </mxGraphModel>
  </diagram>
</mxfile>
